<mxfile host="Electron" modified="2023-05-22T17:23:13.517Z" agent="Mozilla/5.0 (Windows NT 10.0; Win64; x64) AppleWebKit/537.36 (KHTML, like Gecko) draw.io/21.2.8 Chrome/112.0.5615.165 Electron/24.2.0 Safari/537.36" etag="bv6b-zH2MipmCT09nv7o" version="21.2.8" type="device">
  <diagram name="Page-1" id="zLOWhvM_eqB8PPT4TWd1">
    <mxGraphModel dx="2002" dy="1498" grid="1" gridSize="10" guides="1" tooltips="1" connect="1" arrows="1" fold="1" page="1" pageScale="1" pageWidth="850" pageHeight="1100" math="0" shadow="0">
      <root>
        <mxCell id="0" />
        <mxCell id="1" parent="0" />
        <mxCell id="w9FK1hiGp1f3G4BzG1e0-1" value="compute assembly design" style="swimlane;html=1;startSize=20;fontStyle=0;collapsible=0;horizontal=0;swimlaneLine=1;swimlaneFillColor=#ffffff;strokeWidth=1;whiteSpace=wrap;" vertex="1" parent="1">
          <mxGeometry x="10" y="10" width="500" height="420" as="geometry" />
        </mxCell>
        <mxCell id="w9FK1hiGp1f3G4BzG1e0-2" value="fetch representations assembly" style="points=[[0.25,0,0],[0.5,0,0],[0.75,0,0],[1,0.25,0],[1,0.5,0],[1,0.75,0],[0.75,1,0],[0.5,1,0],[0.25,1,0],[0,0.75,0],[0,0.5,0],[0,0.25,0]];shape=mxgraph.bpmn.task;whiteSpace=wrap;rectStyle=rounded;size=10;html=1;container=1;expand=0;collapsible=0;taskMarker=service;isLoopSub=0;isLoopMultiSeq=0;bpmnShapeType=task;isLoopStandard=0;recursiveResize=0;isLoopMultiParallel=1;labelPosition=center;verticalLabelPosition=top;align=center;verticalAlign=bottom;" vertex="1" parent="w9FK1hiGp1f3G4BzG1e0-1">
          <mxGeometry x="293" y="39" width="176" height="133" as="geometry" />
        </mxCell>
        <mxCell id="w9FK1hiGp1f3G4BzG1e0-3" value="fetch variants" style="points=[[0.25,0,0],[0.5,0,0],[0.75,0,0],[1,0.25,0],[1,0.5,0],[1,0.75,0],[0.75,1,0],[0.5,1,0],[0.25,1,0],[0,0.75,0],[0,0.5,0],[0,0.25,0]];shape=mxgraph.bpmn.task;whiteSpace=wrap;rectStyle=rounded;size=10;html=1;container=1;expand=0;collapsible=0;taskMarker=service;isLoopSub=0;isLoopMultiSeq=1;bpmnShapeType=task;isLoopStandard=0;recursiveResize=0;isLoopMultiParallel=0;labelBackgroundColor=none;labelPosition=center;verticalLabelPosition=top;align=center;verticalAlign=bottom;" vertex="1" parent="w9FK1hiGp1f3G4BzG1e0-2">
          <mxGeometry x="89" y="17" width="82" height="73" as="geometry" />
        </mxCell>
        <mxCell id="w9FK1hiGp1f3G4BzG1e0-4" value="solve script" style="points=[[0.25,0,0],[0.5,0,0],[0.75,0,0],[1,0.25,0],[1,0.5,0],[1,0.75,0],[0.75,1,0],[0.5,1,0],[0.25,1,0],[0,0.75,0],[0,0.5,0],[0,0.25,0]];shape=mxgraph.bpmn.task;whiteSpace=wrap;rectStyle=rounded;size=10;html=1;container=1;expand=0;collapsible=0;bpmnShapeType=call;taskMarker=service;align=right;verticalAlign=middle;spacingRight=2;spacingBottom=2;" vertex="1" parent="w9FK1hiGp1f3G4BzG1e0-3">
          <mxGeometry x="25" y="5" width="52" height="33" as="geometry" />
        </mxCell>
        <mxCell id="w9FK1hiGp1f3G4BzG1e0-5" value="modification" style="html=1;shape=mxgraph.flowchart.annotation_2;align=left;labelPosition=right;" vertex="1" parent="w9FK1hiGp1f3G4BzG1e0-3">
          <mxGeometry x="10" y="45" width="6" height="17" as="geometry" />
        </mxCell>
        <mxCell id="w9FK1hiGp1f3G4BzG1e0-6" value="" style="edgeStyle=elbowEdgeStyle;fontSize=12;html=1;endFill=0;startFill=0;endSize=6;startSize=6;dashed=1;dashPattern=1 4;endArrow=none;startArrow=none;rounded=0;entryX=0.5;entryY=0.549;entryDx=0;entryDy=0;entryPerimeter=0;exitX=0;exitY=0.75;exitDx=0;exitDy=0;exitPerimeter=0;" edge="1" parent="w9FK1hiGp1f3G4BzG1e0-3" source="w9FK1hiGp1f3G4BzG1e0-4" target="w9FK1hiGp1f3G4BzG1e0-5">
          <mxGeometry width="160" relative="1" as="geometry">
            <mxPoint x="22" y="30" as="sourcePoint" />
            <mxPoint x="13" y="53.5" as="targetPoint" />
            <Array as="points">
              <mxPoint x="5" y="43" />
              <mxPoint x="32" y="48" />
              <mxPoint x="22" y="48" />
              <mxPoint x="58" y="58" />
            </Array>
          </mxGeometry>
        </mxCell>
        <mxCell id="w9FK1hiGp1f3G4BzG1e0-7" style="edgeStyle=orthogonalEdgeStyle;rounded=0;orthogonalLoop=1;jettySize=auto;html=1;exitX=1;exitY=0.5;exitDx=0;exitDy=0;exitPerimeter=0;entryX=0;entryY=0.5;entryDx=0;entryDy=0;entryPerimeter=0;" edge="1" parent="w9FK1hiGp1f3G4BzG1e0-2" source="w9FK1hiGp1f3G4BzG1e0-8" target="w9FK1hiGp1f3G4BzG1e0-4">
          <mxGeometry relative="1" as="geometry">
            <mxPoint x="126" y="21" as="sourcePoint" />
            <Array as="points">
              <mxPoint x="86" y="22" />
              <mxPoint x="86" y="39" />
            </Array>
            <mxPoint x="156" y="21" as="targetPoint" />
          </mxGeometry>
        </mxCell>
        <mxCell id="w9FK1hiGp1f3G4BzG1e0-8" value="solve script" style="points=[[0.25,0,0],[0.5,0,0],[0.75,0,0],[1,0.25,0],[1,0.5,0],[1,0.75,0],[0.75,1,0],[0.5,1,0],[0.25,1,0],[0,0.75,0],[0,0.5,0],[0,0.25,0]];shape=mxgraph.bpmn.task;whiteSpace=wrap;rectStyle=rounded;size=10;html=1;container=1;expand=0;collapsible=0;bpmnShapeType=call;taskMarker=service;align=right;verticalAlign=middle;spacingRight=2;spacingBottom=2;" vertex="1" parent="w9FK1hiGp1f3G4BzG1e0-2">
          <mxGeometry x="23" y="5.5" width="52" height="33" as="geometry" />
        </mxCell>
        <mxCell id="w9FK1hiGp1f3G4BzG1e0-9" value="definition&lt;br&gt;prototype" style="html=1;shape=mxgraph.flowchart.annotation_2;align=left;labelPosition=right;" vertex="1" parent="w9FK1hiGp1f3G4BzG1e0-2">
          <mxGeometry x="13" y="43.5" width="10" height="26" as="geometry" />
        </mxCell>
        <mxCell id="w9FK1hiGp1f3G4BzG1e0-10" value="" style="edgeStyle=elbowEdgeStyle;fontSize=12;html=1;endFill=0;startFill=0;endSize=6;startSize=6;dashed=1;dashPattern=1 4;endArrow=none;startArrow=none;rounded=0;exitX=0;exitY=0.75;exitDx=0;exitDy=0;exitPerimeter=0;entryX=0;entryY=0.5;entryDx=0;entryDy=0;entryPerimeter=0;" edge="1" parent="w9FK1hiGp1f3G4BzG1e0-2" source="w9FK1hiGp1f3G4BzG1e0-8" target="w9FK1hiGp1f3G4BzG1e0-9">
          <mxGeometry width="160" relative="1" as="geometry">
            <mxPoint x="402" y="118.5" as="sourcePoint" />
            <mxPoint x="407" y="129.5" as="targetPoint" />
            <Array as="points">
              <mxPoint x="13" y="48.5" />
              <mxPoint x="23" y="48.5" />
              <mxPoint x="13" y="48.5" />
              <mxPoint x="49" y="58.5" />
            </Array>
          </mxGeometry>
        </mxCell>
        <mxCell id="w9FK1hiGp1f3G4BzG1e0-11" style="edgeStyle=orthogonalEdgeStyle;rounded=0;orthogonalLoop=1;jettySize=auto;html=1;exitX=0;exitY=0.5;exitDx=0;exitDy=0;exitPerimeter=0;entryX=-0.003;entryY=0.828;entryDx=0;entryDy=0;entryPerimeter=0;endArrow=none;endFill=0;dashed=1;dashPattern=1 4;" edge="1" parent="w9FK1hiGp1f3G4BzG1e0-2" source="w9FK1hiGp1f3G4BzG1e0-12" target="w9FK1hiGp1f3G4BzG1e0-3">
          <mxGeometry relative="1" as="geometry">
            <Array as="points">
              <mxPoint x="10" y="77" />
            </Array>
          </mxGeometry>
        </mxCell>
        <mxCell id="w9FK1hiGp1f3G4BzG1e0-12" value="foreach&lt;br&gt;modification" style="html=1;shape=mxgraph.flowchart.annotation_2;align=left;labelPosition=right;" vertex="1" parent="w9FK1hiGp1f3G4BzG1e0-2">
          <mxGeometry x="10" y="81" width="13" height="18" as="geometry" />
        </mxCell>
        <mxCell id="w9FK1hiGp1f3G4BzG1e0-13" value="foreach&lt;br&gt;distinct&lt;br&gt;sobject" style="html=1;shape=mxgraph.flowchart.annotation_2;align=left;labelPosition=right;" vertex="1" parent="w9FK1hiGp1f3G4BzG1e0-2">
          <mxGeometry x="102" y="97" width="6" height="27" as="geometry" />
        </mxCell>
        <mxCell id="w9FK1hiGp1f3G4BzG1e0-14" value="compute poses of objects for assembly" style="points=[[0.25,0,0],[0.5,0,0],[0.75,0,0],[1,0.25,0],[1,0.5,0],[1,0.75,0],[0.75,1,0],[0.5,1,0],[0.25,1,0],[0,0.75,0],[0,0.5,0],[0,0.25,0]];shape=mxgraph.bpmn.task;whiteSpace=wrap;rectStyle=rounded;size=10;html=1;container=1;expand=0;collapsible=0;taskMarker=service;labelPosition=center;verticalLabelPosition=top;align=center;verticalAlign=bottom;recursiveResize=0;" vertex="1" parent="w9FK1hiGp1f3G4BzG1e0-1">
          <mxGeometry x="90" y="196" width="390" height="213" as="geometry" />
        </mxCell>
        <mxCell id="w9FK1hiGp1f3G4BzG1e0-15" value="compute relative poses of objects for assembly" style="points=[[0.25,0,0],[0.5,0,0],[0.75,0,0],[1,0.25,0],[1,0.5,0],[1,0.75,0],[0.75,1,0],[0.5,1,0],[0.25,1,0],[0,0.75,0],[0,0.5,0],[0,0.25,0]];shape=mxgraph.bpmn.task;whiteSpace=wrap;rectStyle=rounded;size=10;html=1;container=1;expand=0;collapsible=0;taskMarker=service;isLoopSub=0;isLoopMultiSeq=0;bpmnShapeType=task;isLoopStandard=0;recursiveResize=0;isLoopMultiParallel=1;isLoopComp=0;labelPosition=center;verticalLabelPosition=top;align=center;verticalAlign=bottom;" vertex="1" parent="w9FK1hiGp1f3G4BzG1e0-14">
          <mxGeometry x="4" y="23" width="286" height="187" as="geometry" />
        </mxCell>
        <mxCell id="w9FK1hiGp1f3G4BzG1e0-16" style="edgeStyle=orthogonalEdgeStyle;rounded=0;orthogonalLoop=1;jettySize=auto;html=1;exitX=0.5;exitY=1;exitDx=0;exitDy=0;exitPerimeter=0;entryX=0;entryY=0.5;entryDx=0;entryDy=0;entryPerimeter=0;" edge="1" parent="w9FK1hiGp1f3G4BzG1e0-15" source="w9FK1hiGp1f3G4BzG1e0-18" target="w9FK1hiGp1f3G4BzG1e0-31">
          <mxGeometry relative="1" as="geometry">
            <Array as="points">
              <mxPoint x="36" y="129" />
              <mxPoint x="70" y="129" />
            </Array>
            <mxPoint x="62" y="135" as="targetPoint" />
          </mxGeometry>
        </mxCell>
        <mxCell id="w9FK1hiGp1f3G4BzG1e0-17" style="edgeStyle=orthogonalEdgeStyle;rounded=0;orthogonalLoop=1;jettySize=auto;html=1;exitX=0.5;exitY=0;exitDx=0;exitDy=0;exitPerimeter=0;entryX=0;entryY=0.5;entryDx=0;entryDy=0;entryPerimeter=0;" edge="1" parent="w9FK1hiGp1f3G4BzG1e0-15" source="w9FK1hiGp1f3G4BzG1e0-18" target="w9FK1hiGp1f3G4BzG1e0-25">
          <mxGeometry relative="1" as="geometry">
            <Array as="points">
              <mxPoint x="35" y="69" />
              <mxPoint x="35" y="38" />
              <mxPoint x="60" y="38" />
            </Array>
            <mxPoint x="62" y="22.5" as="targetPoint" />
          </mxGeometry>
        </mxCell>
        <mxCell id="w9FK1hiGp1f3G4BzG1e0-18" value="" style="points=[[0.25,0.25,0],[0.5,0,0],[0.75,0.25,0],[1,0.5,0],[0.75,0.75,0],[0.5,1,0],[0.25,0.75,0],[0,0.5,0]];shape=mxgraph.bpmn.gateway2;html=1;verticalLabelPosition=bottom;labelBackgroundColor=#ffffff;verticalAlign=top;align=center;perimeter=rhombusPerimeter;outlineConnect=0;outline=none;symbol=none;gwType=parallel;" vertex="1" parent="w9FK1hiGp1f3G4BzG1e0-15">
          <mxGeometry x="11" y="69" width="50" height="50" as="geometry" />
        </mxCell>
        <mxCell id="w9FK1hiGp1f3G4BzG1e0-19" style="edgeStyle=orthogonalEdgeStyle;rounded=0;orthogonalLoop=1;jettySize=auto;html=1;exitX=1;exitY=0.5;exitDx=0;exitDy=0;exitPerimeter=0;entryX=0.5;entryY=0;entryDx=0;entryDy=0;entryPerimeter=0;" edge="1" parent="w9FK1hiGp1f3G4BzG1e0-15" source="w9FK1hiGp1f3G4BzG1e0-25" target="w9FK1hiGp1f3G4BzG1e0-28">
          <mxGeometry relative="1" as="geometry">
            <mxPoint x="182" y="22.5" as="sourcePoint" />
          </mxGeometry>
        </mxCell>
        <mxCell id="w9FK1hiGp1f3G4BzG1e0-20" value="" style="edgeStyle=orthogonalEdgeStyle;rounded=0;orthogonalLoop=1;jettySize=auto;html=1;exitX=1;exitY=0.5;exitDx=0;exitDy=0;exitPerimeter=0;entryX=0.5;entryY=1;entryDx=0;entryDy=0;entryPerimeter=0;" edge="1" parent="w9FK1hiGp1f3G4BzG1e0-15" source="w9FK1hiGp1f3G4BzG1e0-31" target="w9FK1hiGp1f3G4BzG1e0-28">
          <mxGeometry relative="1" as="geometry">
            <mxPoint x="182" y="135" as="sourcePoint" />
            <Array as="points">
              <mxPoint x="122" y="130" />
              <mxPoint x="153" y="130" />
            </Array>
          </mxGeometry>
        </mxCell>
        <mxCell id="w9FK1hiGp1f3G4BzG1e0-21" style="edgeStyle=orthogonalEdgeStyle;rounded=0;orthogonalLoop=1;jettySize=auto;html=1;exitX=0;exitY=0.5;exitDx=0;exitDy=0;exitPerimeter=0;entryX=1;entryY=0.25;entryDx=0;entryDy=0;entryPerimeter=0;endArrow=none;endFill=0;dashed=1;dashPattern=1 4;" edge="1" parent="w9FK1hiGp1f3G4BzG1e0-15" source="w9FK1hiGp1f3G4BzG1e0-22" target="w9FK1hiGp1f3G4BzG1e0-15">
          <mxGeometry relative="1" as="geometry">
            <Array as="points">
              <mxPoint x="290" y="47" />
              <mxPoint x="286" y="47" />
            </Array>
          </mxGeometry>
        </mxCell>
        <mxCell id="w9FK1hiGp1f3G4BzG1e0-22" value="recursively&lt;br&gt;foreach part in &lt;br&gt;assembly parts" style="html=1;shape=mxgraph.flowchart.annotation_2;align=left;labelPosition=right;" vertex="1" parent="w9FK1hiGp1f3G4BzG1e0-15">
          <mxGeometry x="290" y="-19" width="13" height="44" as="geometry" />
        </mxCell>
        <mxCell id="w9FK1hiGp1f3G4BzG1e0-23" value="" style="group" vertex="1" connectable="0" parent="w9FK1hiGp1f3G4BzG1e0-15">
          <mxGeometry x="55" y="14" width="77" height="75" as="geometry" />
        </mxCell>
        <mxCell id="w9FK1hiGp1f3G4BzG1e0-24" value="connected" style="points=[[0.25,0,0],[0.5,0,0],[0.75,0,0],[1,0.25,0],[1,0.5,0],[1,0.75,0],[0.75,1,0],[0.5,1,0],[0.25,1,0],[0,0.75,0],[0,0.5,0],[0,0.25,0]];rounded=1;arcSize=10;dashed=1;strokeColor=#000000;fillColor=none;gradientColor=none;dashPattern=8 3 1 3;strokeWidth=2;whiteSpace=wrap;html=1;verticalAlign=bottom;labelPosition=center;verticalLabelPosition=top;align=center;" vertex="1" parent="w9FK1hiGp1f3G4BzG1e0-23">
          <mxGeometry width="77" height="75" as="geometry" />
        </mxCell>
        <mxCell id="w9FK1hiGp1f3G4BzG1e0-25" value="solve script" style="points=[[0.25,0,0],[0.5,0,0],[0.75,0,0],[1,0.25,0],[1,0.5,0],[1,0.75,0],[0.75,1,0],[0.5,1,0],[0.25,1,0],[0,0.75,0],[0,0.5,0],[0,0.25,0]];shape=mxgraph.bpmn.task;whiteSpace=wrap;rectStyle=rounded;size=10;html=1;container=1;expand=0;collapsible=0;bpmnShapeType=call;taskMarker=service;align=right;verticalAlign=middle;spacingRight=2;spacingBottom=2;" vertex="1" parent="w9FK1hiGp1f3G4BzG1e0-23">
          <mxGeometry x="15" y="7" width="52" height="33" as="geometry" />
        </mxCell>
        <mxCell id="w9FK1hiGp1f3G4BzG1e0-26" value="definition&lt;br&gt;connection" style="html=1;shape=mxgraph.flowchart.annotation_2;align=left;labelPosition=right;" vertex="1" parent="w9FK1hiGp1f3G4BzG1e0-23">
          <mxGeometry x="5" y="45" width="10" height="26" as="geometry" />
        </mxCell>
        <mxCell id="w9FK1hiGp1f3G4BzG1e0-27" value="" style="edgeStyle=elbowEdgeStyle;fontSize=12;html=1;endFill=0;startFill=0;endSize=6;startSize=6;dashed=1;dashPattern=1 4;endArrow=none;startArrow=none;rounded=0;exitX=0;exitY=0.75;exitDx=0;exitDy=0;exitPerimeter=0;entryX=0;entryY=0.5;entryDx=0;entryDy=0;entryPerimeter=0;" edge="1" parent="w9FK1hiGp1f3G4BzG1e0-23" source="w9FK1hiGp1f3G4BzG1e0-25" target="w9FK1hiGp1f3G4BzG1e0-26">
          <mxGeometry width="160" relative="1" as="geometry">
            <mxPoint x="394" y="120" as="sourcePoint" />
            <mxPoint x="399" y="131" as="targetPoint" />
            <Array as="points">
              <mxPoint x="5" y="50" />
              <mxPoint x="15" y="50" />
              <mxPoint x="5" y="50" />
              <mxPoint x="41" y="60" />
            </Array>
          </mxGeometry>
        </mxCell>
        <mxCell id="w9FK1hiGp1f3G4BzG1e0-28" value="" style="points=[[0.25,0.25,0],[0.5,0,0],[0.75,0.25,0],[1,0.5,0],[0.75,0.75,0],[0.5,1,0],[0.25,0.75,0],[0,0.5,0]];shape=mxgraph.bpmn.gateway2;html=1;verticalLabelPosition=bottom;labelBackgroundColor=#ffffff;verticalAlign=top;align=center;perimeter=rhombusPerimeter;outlineConnect=0;outline=none;symbol=none;gwType=parallel;" vertex="1" parent="w9FK1hiGp1f3G4BzG1e0-15">
          <mxGeometry x="128" y="69" width="50" height="50" as="geometry" />
        </mxCell>
        <mxCell id="w9FK1hiGp1f3G4BzG1e0-29" value="0" style="group" vertex="1" connectable="0" parent="w9FK1hiGp1f3G4BzG1e0-15">
          <mxGeometry x="55" y="105" width="79" height="79" as="geometry" />
        </mxCell>
        <mxCell id="w9FK1hiGp1f3G4BzG1e0-30" value="connecting" style="points=[[0.25,0,0],[0.5,0,0],[0.75,0,0],[1,0.25,0],[1,0.5,0],[1,0.75,0],[0.75,1,0],[0.5,1,0],[0.25,1,0],[0,0.75,0],[0,0.5,0],[0,0.25,0]];rounded=1;arcSize=10;dashed=1;strokeColor=#000000;fillColor=none;gradientColor=none;dashPattern=8 3 1 3;strokeWidth=2;whiteSpace=wrap;html=1;verticalAlign=bottom;labelPosition=center;verticalLabelPosition=top;align=center;" vertex="1" parent="w9FK1hiGp1f3G4BzG1e0-29">
          <mxGeometry width="79" height="79" as="geometry" />
        </mxCell>
        <mxCell id="w9FK1hiGp1f3G4BzG1e0-31" value="solve script" style="points=[[0.25,0,0],[0.5,0,0],[0.75,0,0],[1,0.25,0],[1,0.5,0],[1,0.75,0],[0.75,1,0],[0.5,1,0],[0.25,1,0],[0,0.75,0],[0,0.5,0],[0,0.25,0]];shape=mxgraph.bpmn.task;whiteSpace=wrap;rectStyle=rounded;size=10;html=1;container=1;expand=0;collapsible=0;bpmnShapeType=call;taskMarker=service;align=right;verticalAlign=middle;spacingRight=2;spacingBottom=2;" vertex="1" parent="w9FK1hiGp1f3G4BzG1e0-29">
          <mxGeometry x="14.5" y="7" width="52" height="33" as="geometry" />
        </mxCell>
        <mxCell id="w9FK1hiGp1f3G4BzG1e0-32" value="definition&lt;br&gt;connection" style="html=1;shape=mxgraph.flowchart.annotation_2;align=left;labelPosition=right;" vertex="1" parent="w9FK1hiGp1f3G4BzG1e0-29">
          <mxGeometry x="4.5" y="45" width="10" height="26" as="geometry" />
        </mxCell>
        <mxCell id="w9FK1hiGp1f3G4BzG1e0-33" value="" style="edgeStyle=elbowEdgeStyle;fontSize=12;html=1;endFill=0;startFill=0;endSize=6;startSize=6;dashed=1;dashPattern=1 4;endArrow=none;startArrow=none;rounded=0;exitX=0;exitY=0.75;exitDx=0;exitDy=0;exitPerimeter=0;entryX=0;entryY=0.5;entryDx=0;entryDy=0;entryPerimeter=0;" edge="1" parent="w9FK1hiGp1f3G4BzG1e0-29" source="w9FK1hiGp1f3G4BzG1e0-31" target="w9FK1hiGp1f3G4BzG1e0-32">
          <mxGeometry width="160" relative="1" as="geometry">
            <mxPoint x="393.5" y="120" as="sourcePoint" />
            <mxPoint x="398.5" y="131" as="targetPoint" />
            <Array as="points">
              <mxPoint x="4.5" y="50" />
              <mxPoint x="14.5" y="50" />
              <mxPoint x="4.5" y="50" />
              <mxPoint x="40.5" y="60" />
            </Array>
          </mxGeometry>
        </mxCell>
        <mxCell id="w9FK1hiGp1f3G4BzG1e0-34" value="connecting pose" style="shape=mxgraph.bpmn.data;labelPosition=center;verticalLabelPosition=bottom;align=center;verticalAlign=top;size=15;html=1;whiteSpace=wrap;" vertex="1" parent="w9FK1hiGp1f3G4BzG1e0-15">
          <mxGeometry x="168" y="118" width="26" height="33" as="geometry" />
        </mxCell>
        <mxCell id="w9FK1hiGp1f3G4BzG1e0-35" value="connected pose" style="shape=mxgraph.bpmn.data;labelPosition=center;verticalLabelPosition=bottom;align=center;verticalAlign=top;size=15;html=1;whiteSpace=wrap;" vertex="1" parent="w9FK1hiGp1f3G4BzG1e0-15">
          <mxGeometry x="169" y="5" width="26" height="33" as="geometry" />
        </mxCell>
        <mxCell id="w9FK1hiGp1f3G4BzG1e0-36" style="edgeStyle=orthogonalEdgeStyle;rounded=0;orthogonalLoop=1;jettySize=auto;html=1;exitX=1;exitY=0.75;exitDx=0;exitDy=0;exitPerimeter=0;entryX=0.011;entryY=0.55;entryDx=0;entryDy=0;entryPerimeter=0;dashed=1;dashPattern=1 4;endArrow=openThin;endFill=0;startArrow=none;startFill=0;" edge="1" parent="w9FK1hiGp1f3G4BzG1e0-15" source="w9FK1hiGp1f3G4BzG1e0-31" target="w9FK1hiGp1f3G4BzG1e0-34">
          <mxGeometry relative="1" as="geometry" />
        </mxCell>
        <mxCell id="w9FK1hiGp1f3G4BzG1e0-37" style="edgeStyle=orthogonalEdgeStyle;rounded=0;orthogonalLoop=1;jettySize=auto;html=1;exitX=1;exitY=0.25;exitDx=0;exitDy=0;exitPerimeter=0;entryX=-0.01;entryY=0.743;entryDx=0;entryDy=0;entryPerimeter=0;dashed=1;dashPattern=1 4;endArrow=openThin;endFill=0;" edge="1" parent="w9FK1hiGp1f3G4BzG1e0-15" source="w9FK1hiGp1f3G4BzG1e0-25" target="w9FK1hiGp1f3G4BzG1e0-35">
          <mxGeometry relative="1" as="geometry">
            <mxPoint x="132" y="147" as="sourcePoint" />
            <mxPoint x="178" y="145" as="targetPoint" />
          </mxGeometry>
        </mxCell>
        <mxCell id="w9FK1hiGp1f3G4BzG1e0-38" value="" style="edgeStyle=orthogonalEdgeStyle;rounded=0;orthogonalLoop=1;jettySize=auto;html=1;exitX=1;exitY=0.5;exitDx=0;exitDy=0;exitPerimeter=0;entryX=0;entryY=0.5;entryDx=0;entryDy=0;entryPerimeter=0;" edge="1" parent="w9FK1hiGp1f3G4BzG1e0-14" source="w9FK1hiGp1f3G4BzG1e0-28" target="w9FK1hiGp1f3G4BzG1e0-44">
          <mxGeometry relative="1" as="geometry">
            <mxPoint x="238" y="115" as="sourcePoint" />
            <mxPoint x="318" y="115" as="targetPoint" />
          </mxGeometry>
        </mxCell>
        <mxCell id="w9FK1hiGp1f3G4BzG1e0-39" value="compute poses of assembly" style="points=[[0.25,0,0],[0.5,0,0],[0.75,0,0],[1,0.25,0],[1,0.5,0],[1,0.75,0],[0.75,1,0],[0.5,1,0],[0.25,1,0],[0,0.75,0],[0,0.5,0],[0,0.25,0]];shape=mxgraph.bpmn.task;whiteSpace=wrap;rectStyle=rounded;size=10;html=1;container=1;expand=0;collapsible=0;taskMarker=service;align=right;" vertex="1" parent="w9FK1hiGp1f3G4BzG1e0-14">
          <mxGeometry x="303" y="52" width="69" height="50" as="geometry" />
        </mxCell>
        <mxCell id="w9FK1hiGp1f3G4BzG1e0-40" style="edgeStyle=orthogonalEdgeStyle;rounded=0;orthogonalLoop=1;jettySize=auto;html=1;exitX=1;exitY=0.5;exitDx=0;exitDy=0;exitPerimeter=0;entryX=0;entryY=0.5;entryDx=0;entryDy=0;entryPerimeter=0;" edge="1" parent="w9FK1hiGp1f3G4BzG1e0-14" source="w9FK1hiGp1f3G4BzG1e0-44" target="w9FK1hiGp1f3G4BzG1e0-39">
          <mxGeometry relative="1" as="geometry">
            <mxPoint x="272" y="117" as="sourcePoint" />
            <Array as="points">
              <mxPoint x="286" y="117" />
              <mxPoint x="286" y="77" />
            </Array>
            <mxPoint x="294" y="77" as="targetPoint" />
          </mxGeometry>
        </mxCell>
        <mxCell id="w9FK1hiGp1f3G4BzG1e0-41" value="" style="edgeStyle=elbowEdgeStyle;fontSize=12;html=1;endFill=0;startFill=0;endSize=6;startSize=6;dashed=1;dashPattern=1 4;endArrow=openThin;startArrow=none;rounded=0;exitX=1;exitY=0.75;exitDx=0;exitDy=0;exitPerimeter=0;entryX=-0.035;entryY=0.446;entryDx=0;entryDy=0;entryPerimeter=0;" edge="1" parent="w9FK1hiGp1f3G4BzG1e0-14" source="w9FK1hiGp1f3G4BzG1e0-44" target="w9FK1hiGp1f3G4BzG1e0-42">
          <mxGeometry width="160" relative="1" as="geometry">
            <mxPoint x="156" y="281" as="sourcePoint" />
            <mxPoint x="340" y="261" as="targetPoint" />
            <Array as="points">
              <mxPoint x="300" y="133" />
              <mxPoint x="290" y="163" />
              <mxPoint x="270" y="183" />
            </Array>
          </mxGeometry>
        </mxCell>
        <mxCell id="w9FK1hiGp1f3G4BzG1e0-42" value="relative objects poses" style="shape=mxgraph.bpmn.data;labelPosition=center;verticalLabelPosition=bottom;align=center;verticalAlign=top;size=15;html=1;bpmnTransferType=none;isCollection=1;whiteSpace=wrap;" vertex="1" parent="w9FK1hiGp1f3G4BzG1e0-14">
          <mxGeometry x="333.5" y="117" width="23.5" height="33" as="geometry" />
        </mxCell>
        <mxCell id="w9FK1hiGp1f3G4BzG1e0-43" value="" style="edgeStyle=elbowEdgeStyle;fontSize=12;html=1;endFill=0;startFill=0;endSize=6;startSize=6;dashed=1;dashPattern=1 4;endArrow=openThin;startArrow=none;rounded=0;exitX=0;exitY=0;exitDx=4.250000000000002;exitDy=0;exitPerimeter=0;entryX=0.5;entryY=1;entryDx=0;entryDy=0;entryPerimeter=0;" edge="1" parent="w9FK1hiGp1f3G4BzG1e0-14" source="w9FK1hiGp1f3G4BzG1e0-42" target="w9FK1hiGp1f3G4BzG1e0-39">
          <mxGeometry width="160" relative="1" as="geometry">
            <mxPoint x="389" y="301" as="sourcePoint" />
            <mxPoint x="549" y="301" as="targetPoint" />
            <Array as="points">
              <mxPoint x="338" y="113" />
              <mxPoint x="496" y="231" />
            </Array>
          </mxGeometry>
        </mxCell>
        <mxCell id="w9FK1hiGp1f3G4BzG1e0-44" value="compute relative pose for connecting" style="points=[[0.25,0,0],[0.5,0,0],[0.75,0,0],[1,0.25,0],[1,0.5,0],[1,0.75,0],[0.75,1,0],[0.5,1,0],[0.25,1,0],[0,0.75,0],[0,0.5,0],[0,0.25,0]];shape=mxgraph.bpmn.task;whiteSpace=wrap;rectStyle=rounded;size=10;html=1;container=1;expand=0;collapsible=0;taskMarker=service;align=right;" vertex="1" parent="w9FK1hiGp1f3G4BzG1e0-14">
          <mxGeometry x="199" y="87" width="81" height="60" as="geometry" />
        </mxCell>
        <mxCell id="w9FK1hiGp1f3G4BzG1e0-45" style="edgeStyle=orthogonalEdgeStyle;rounded=0;orthogonalLoop=1;jettySize=auto;html=1;exitX=0;exitY=0;exitDx=30;exitDy=24;exitPerimeter=0;entryX=0.5;entryY=1;entryDx=0;entryDy=0;entryPerimeter=0;dashed=1;dashPattern=1 4;endArrow=openThin;endFill=0;startArrow=none;startFill=0;" edge="1" parent="w9FK1hiGp1f3G4BzG1e0-14" source="w9FK1hiGp1f3G4BzG1e0-34" target="w9FK1hiGp1f3G4BzG1e0-44">
          <mxGeometry relative="1" as="geometry">
            <mxPoint x="136" y="170" as="sourcePoint" />
            <mxPoint x="182" y="169" as="targetPoint" />
            <Array as="points">
              <mxPoint x="240" y="165" />
            </Array>
          </mxGeometry>
        </mxCell>
        <mxCell id="w9FK1hiGp1f3G4BzG1e0-46" style="edgeStyle=orthogonalEdgeStyle;rounded=0;orthogonalLoop=1;jettySize=auto;html=1;exitX=0;exitY=0;exitDx=30;exitDy=24;exitPerimeter=0;entryX=0.5;entryY=0;entryDx=0;entryDy=0;entryPerimeter=0;dashed=1;dashPattern=1 4;endArrow=openThin;endFill=0;startArrow=none;startFill=0;" edge="1" parent="w9FK1hiGp1f3G4BzG1e0-14" source="w9FK1hiGp1f3G4BzG1e0-35" target="w9FK1hiGp1f3G4BzG1e0-44">
          <mxGeometry relative="1" as="geometry">
            <mxPoint x="212" y="175" as="sourcePoint" />
            <mxPoint x="250" y="157" as="targetPoint" />
            <Array as="points">
              <mxPoint x="240" y="52" />
              <mxPoint x="240" y="87" />
            </Array>
          </mxGeometry>
        </mxCell>
        <mxCell id="w9FK1hiGp1f3G4BzG1e0-47" value="assembly design&lt;br&gt;response" style="points=[[0.145,0.145,0],[0.5,0,0],[0.855,0.145,0],[1,0.5,0],[0.855,0.855,0],[0.5,1,0],[0.145,0.855,0],[0,0.5,0]];shape=mxgraph.bpmn.event;html=1;verticalLabelPosition=bottom;labelBackgroundColor=#ffffff;verticalAlign=top;align=center;perimeter=ellipsePerimeter;outlineConnect=0;aspect=fixed;outline=end;symbol=message;whiteSpace=wrap;" vertex="1" parent="w9FK1hiGp1f3G4BzG1e0-1">
          <mxGeometry x="25" y="145" width="50" height="50" as="geometry" />
        </mxCell>
        <mxCell id="w9FK1hiGp1f3G4BzG1e0-48" style="edgeStyle=orthogonalEdgeStyle;rounded=0;orthogonalLoop=1;jettySize=auto;html=1;exitX=1;exitY=0.5;exitDx=0;exitDy=0;exitPerimeter=0;entryX=0;entryY=0.5;entryDx=0;entryDy=0;entryPerimeter=0;" edge="1" parent="w9FK1hiGp1f3G4BzG1e0-1" source="w9FK1hiGp1f3G4BzG1e0-49" target="w9FK1hiGp1f3G4BzG1e0-18">
          <mxGeometry relative="1" as="geometry">
            <Array as="points">
              <mxPoint x="80" y="270" />
              <mxPoint x="80" y="313" />
            </Array>
          </mxGeometry>
        </mxCell>
        <mxCell id="w9FK1hiGp1f3G4BzG1e0-49" value="" style="points=[[0.25,0.25,0],[0.5,0,0],[0.75,0.25,0],[1,0.5,0],[0.75,0.75,0],[0.5,1,0],[0.25,0.75,0],[0,0.5,0]];shape=mxgraph.bpmn.gateway2;html=1;verticalLabelPosition=bottom;labelBackgroundColor=#ffffff;verticalAlign=top;align=center;perimeter=rhombusPerimeter;outlineConnect=0;outline=none;symbol=none;gwType=parallel;" vertex="1" parent="w9FK1hiGp1f3G4BzG1e0-1">
          <mxGeometry x="24" y="245" width="50" height="50" as="geometry" />
        </mxCell>
        <mxCell id="w9FK1hiGp1f3G4BzG1e0-50" style="edgeStyle=orthogonalEdgeStyle;rounded=0;orthogonalLoop=1;jettySize=auto;html=1;exitX=0.5;exitY=0;exitDx=0;exitDy=0;exitPerimeter=0;entryX=0.5;entryY=1;entryDx=0;entryDy=0;entryPerimeter=0;" edge="1" parent="w9FK1hiGp1f3G4BzG1e0-1" source="w9FK1hiGp1f3G4BzG1e0-51" target="w9FK1hiGp1f3G4BzG1e0-49">
          <mxGeometry relative="1" as="geometry" />
        </mxCell>
        <mxCell id="w9FK1hiGp1f3G4BzG1e0-51" value="assembly design request" style="points=[[0.145,0.145,0],[0.5,0,0],[0.855,0.145,0],[1,0.5,0],[0.855,0.855,0],[0.5,1,0],[0.145,0.855,0],[0,0.5,0]];shape=mxgraph.bpmn.event;html=1;verticalLabelPosition=bottom;labelBackgroundColor=#ffffff;verticalAlign=top;align=center;perimeter=ellipsePerimeter;outlineConnect=0;aspect=fixed;outline=standard;symbol=message;whiteSpace=wrap;" vertex="1" parent="w9FK1hiGp1f3G4BzG1e0-1">
          <mxGeometry x="24" y="309" width="50" height="50" as="geometry" />
        </mxCell>
        <mxCell id="w9FK1hiGp1f3G4BzG1e0-52" style="edgeStyle=orthogonalEdgeStyle;rounded=0;orthogonalLoop=1;jettySize=auto;html=1;exitX=0.5;exitY=1;exitDx=0;exitDy=0;exitPerimeter=0;entryX=0.5;entryY=0;entryDx=0;entryDy=0;entryPerimeter=0;" edge="1" parent="w9FK1hiGp1f3G4BzG1e0-1" source="w9FK1hiGp1f3G4BzG1e0-53" target="w9FK1hiGp1f3G4BzG1e0-47">
          <mxGeometry relative="1" as="geometry" />
        </mxCell>
        <mxCell id="w9FK1hiGp1f3G4BzG1e0-53" value="compose design" style="points=[[0.25,0,0],[0.5,0,0],[0.75,0,0],[1,0.25,0],[1,0.5,0],[1,0.75,0],[0.75,1,0],[0.5,1,0],[0.25,1,0],[0,0.75,0],[0,0.5,0],[0,0.25,0]];shape=mxgraph.bpmn.task;whiteSpace=wrap;rectStyle=rounded;size=10;html=1;container=1;expand=0;collapsible=0;taskMarker=service;align=right;verticalAlign=bottom;" vertex="1" parent="w9FK1hiGp1f3G4BzG1e0-1">
          <mxGeometry x="26" y="83" width="51" height="50" as="geometry" />
        </mxCell>
        <mxCell id="w9FK1hiGp1f3G4BzG1e0-54" value="objects poses" style="shape=mxgraph.bpmn.data;labelPosition=center;verticalLabelPosition=bottom;align=center;verticalAlign=top;size=15;html=1;bpmnTransferType=none;isCollection=1;whiteSpace=wrap;" vertex="1" parent="w9FK1hiGp1f3G4BzG1e0-1">
          <mxGeometry x="206" y="109" width="27" height="33" as="geometry" />
        </mxCell>
        <mxCell id="w9FK1hiGp1f3G4BzG1e0-55" value="" style="edgeStyle=orthogonalEdgeStyle;rounded=0;orthogonalLoop=1;jettySize=auto;html=1;exitX=0;exitY=0;exitDx=6;exitDy=0;exitPerimeter=0;entryX=1;entryY=0.25;entryDx=0;entryDy=0;startArrow=none;startFill=0;endArrow=open;endFill=0;dashed=1;dashPattern=1 4;spacing=1;fillColor=none;entryPerimeter=0;" edge="1" parent="w9FK1hiGp1f3G4BzG1e0-1" source="w9FK1hiGp1f3G4BzG1e0-54" target="w9FK1hiGp1f3G4BzG1e0-53">
          <mxGeometry relative="1" as="geometry">
            <mxPoint x="620" y="-244" as="sourcePoint" />
            <Array as="points">
              <mxPoint x="212" y="96" />
              <mxPoint x="183" y="96" />
            </Array>
            <mxPoint x="661" y="-104" as="targetPoint" />
          </mxGeometry>
        </mxCell>
        <mxCell id="w9FK1hiGp1f3G4BzG1e0-56" style="edgeStyle=orthogonalEdgeStyle;rounded=0;orthogonalLoop=1;jettySize=auto;html=1;entryX=0;entryY=0;entryDx=27;entryDy=24;startArrow=none;startFill=0;endArrow=open;endFill=0;dashed=1;dashPattern=1 4;spacing=1;fillColor=none;entryPerimeter=0;exitX=0.905;exitY=-0.006;exitDx=0;exitDy=0;exitPerimeter=0;" edge="1" parent="w9FK1hiGp1f3G4BzG1e0-1" source="w9FK1hiGp1f3G4BzG1e0-14" target="w9FK1hiGp1f3G4BzG1e0-54">
          <mxGeometry relative="1" as="geometry">
            <mxPoint x="470" y="179" as="sourcePoint" />
            <Array as="points">
              <mxPoint x="443" y="179" />
              <mxPoint x="260" y="179" />
              <mxPoint x="260" y="133" />
            </Array>
            <mxPoint x="884" y="-104" as="targetPoint" />
          </mxGeometry>
        </mxCell>
        <mxCell id="w9FK1hiGp1f3G4BzG1e0-57" style="edgeStyle=orthogonalEdgeStyle;rounded=0;orthogonalLoop=1;jettySize=auto;html=1;exitX=1;exitY=0.5;exitDx=0;exitDy=0;exitPerimeter=0;entryX=1;entryY=0.5;entryDx=0;entryDy=0;entryPerimeter=0;" edge="1" parent="w9FK1hiGp1f3G4BzG1e0-1" source="w9FK1hiGp1f3G4BzG1e0-39" target="w9FK1hiGp1f3G4BzG1e0-60">
          <mxGeometry relative="1" as="geometry">
            <Array as="points">
              <mxPoint x="490" y="273" />
              <mxPoint x="490" y="176" />
              <mxPoint x="280" y="176" />
              <mxPoint x="280" y="69" />
            </Array>
          </mxGeometry>
        </mxCell>
        <mxCell id="w9FK1hiGp1f3G4BzG1e0-58" style="edgeStyle=orthogonalEdgeStyle;rounded=0;orthogonalLoop=1;jettySize=auto;html=1;exitX=1;exitY=0.75;exitDx=0;exitDy=0;exitPerimeter=0;entryX=0.5;entryY=0;entryDx=0;entryDy=0;entryPerimeter=0;" edge="1" parent="w9FK1hiGp1f3G4BzG1e0-1" source="w9FK1hiGp1f3G4BzG1e0-4" target="w9FK1hiGp1f3G4BzG1e0-60">
          <mxGeometry relative="1" as="geometry">
            <Array as="points">
              <mxPoint x="459" y="112" />
              <mxPoint x="479" y="112" />
              <mxPoint x="479" y="9" />
              <mxPoint x="134" y="9" />
            </Array>
          </mxGeometry>
        </mxCell>
        <mxCell id="w9FK1hiGp1f3G4BzG1e0-59" style="edgeStyle=orthogonalEdgeStyle;rounded=0;orthogonalLoop=1;jettySize=auto;html=1;exitX=0;exitY=0.5;exitDx=0;exitDy=0;exitPerimeter=0;entryX=0.5;entryY=0;entryDx=0;entryDy=0;entryPerimeter=0;" edge="1" parent="w9FK1hiGp1f3G4BzG1e0-1" source="w9FK1hiGp1f3G4BzG1e0-60" target="w9FK1hiGp1f3G4BzG1e0-53">
          <mxGeometry relative="1" as="geometry">
            <Array as="points">
              <mxPoint x="52" y="69" />
            </Array>
          </mxGeometry>
        </mxCell>
        <mxCell id="w9FK1hiGp1f3G4BzG1e0-60" value="" style="points=[[0.25,0.25,0],[0.5,0,0],[0.75,0.25,0],[1,0.5,0],[0.75,0.75,0],[0.5,1,0],[0.25,0.75,0],[0,0.5,0]];shape=mxgraph.bpmn.gateway2;html=1;verticalLabelPosition=bottom;labelBackgroundColor=#ffffff;verticalAlign=top;align=center;perimeter=rhombusPerimeter;outlineConnect=0;outline=none;symbol=none;gwType=parallel;" vertex="1" parent="w9FK1hiGp1f3G4BzG1e0-1">
          <mxGeometry x="109" y="44" width="50" height="50" as="geometry" />
        </mxCell>
        <mxCell id="w9FK1hiGp1f3G4BzG1e0-61" value="objects representations" style="shape=mxgraph.bpmn.data;labelPosition=center;verticalLabelPosition=bottom;align=center;verticalAlign=top;size=15;html=1;bpmnTransferType=none;isCollection=1;whiteSpace=wrap;" vertex="1" parent="1">
          <mxGeometry x="134" y="118" width="26" height="33" as="geometry" />
        </mxCell>
        <mxCell id="w9FK1hiGp1f3G4BzG1e0-62" style="edgeStyle=orthogonalEdgeStyle;rounded=0;orthogonalLoop=1;jettySize=auto;html=1;exitX=1;exitY=0.25;exitDx=0;exitDy=0;exitPerimeter=0;entryX=0;entryY=0;entryDx=26;entryDy=24;entryPerimeter=0;endArrow=openThin;endFill=0;dashed=1;dashPattern=1 4;" edge="1" parent="1" source="w9FK1hiGp1f3G4BzG1e0-4" target="w9FK1hiGp1f3G4BzG1e0-61">
          <mxGeometry relative="1" as="geometry">
            <mxPoint x="414.9999999999998" y="113.50000000000011" as="sourcePoint" />
            <mxPoint x="157.9999999999999" y="143" as="targetPoint" />
            <Array as="points">
              <mxPoint x="469" y="59" />
              <mxPoint x="436" y="59" />
              <mxPoint x="436" y="29" />
              <mxPoint x="183" y="29" />
              <mxPoint x="183" y="142" />
            </Array>
          </mxGeometry>
        </mxCell>
        <mxCell id="w9FK1hiGp1f3G4BzG1e0-63" value="" style="edgeStyle=orthogonalEdgeStyle;rounded=0;orthogonalLoop=1;jettySize=auto;html=1;exitX=0.033;exitY=0.361;exitDx=0;exitDy=0;exitPerimeter=0;entryX=1;entryY=0.75;entryDx=0;entryDy=0;startArrow=none;startFill=0;endArrow=open;endFill=0;dashed=1;dashPattern=1 4;spacing=1;fillColor=none;entryPerimeter=0;" edge="1" parent="1" source="w9FK1hiGp1f3G4BzG1e0-61" target="w9FK1hiGp1f3G4BzG1e0-53">
          <mxGeometry relative="1" as="geometry">
            <mxPoint x="190" y="129" as="sourcePoint" />
            <Array as="points">
              <mxPoint x="103" y="130" />
            </Array>
            <mxPoint x="47" y="167" as="targetPoint" />
          </mxGeometry>
        </mxCell>
      </root>
    </mxGraphModel>
  </diagram>
</mxfile>
